<?xml version="1.0" standalone="no"?>
<!DOCTYPE svg PUBLIC "-//W3C//DTD SVG 20010904//EN"
 "http://www.w3.org/TR/2001/REC-SVG-20010904/DTD/svg10.dtd">
<svg version="1.0" xmlns="http://www.w3.org/2000/svg"
 width="524.000000pt" height="524.000000pt" viewBox="0 0 524.000000 524.000000"
 preserveAspectRatio="xMidYMid meet">
<metadata>
Created by potrace 1.11, written by Peter Selinger 2001-2013
</metadata>
<g transform="translate(0.000000,524.000000) scale(0.100000,-0.100000)"
fill="#000000" stroke="none">
<path d="M3167 5104 c-1 -1 -47 -4 -102 -8 -55 -3 -111 -8 -125 -11 -14 -3
-43 -8 -65 -11 -295 -44 -689 -208 -906 -378 -15 -12 -38 -30 -53 -40 -53 -38
-103 -83 -191 -172 -121 -121 -139 -144 -238 -285 -128 -185 -242 -448 -283
-652 -2 -10 -5 -26 -8 -35 -5 -17 -11 -60 -26 -177 -11 -94 -2 -398 14 -475 3
-13 8 -40 11 -60 3 -19 12 -60 21 -90 8 -30 17 -64 19 -75 12 -76 130 -341
207 -462 26 -41 38 -69 33 -81 -3 -9 -6 -18 -6 -19 0 -2 -8 -22 -18 -45 -63
-150 -73 -370 -25 -563 14 -55 80 -213 95 -225 3 -3 8 -12 11 -20 12 -33 101
-141 169 -205 63 -59 195 -155 214 -155 4 0 20 -9 36 -21 16 -11 29 -18 29
-14 0 3 14 -2 32 -11 95 -49 275 -82 428 -78 146 4 152 5 254 33 107 29 215
81 305 146 42 30 192 187 219 230 22 33 40 50 55 51 12 1 65 4 117 8 290 20
530 85 776 211 85 44 267 156 284 174 3 3 28 24 55 46 55 44 217 205 252 251
13 16 36 47 53 69 16 22 33 45 37 50 49 63 168 279 199 361 45 117 56 149 79
228 14 49 27 103 30 120 5 36 13 71 15 71 1 0 3 14 5 30 2 17 6 50 10 75 3 25
8 106 11 180 2 74 6 143 8 153 2 9 1 17 -3 17 -3 0 -6 19 -6 43 0 23 -3 69 -8
102 -5 33 -9 67 -9 75 0 8 -4 33 -9 55 -4 22 -10 52 -13 66 -12 68 -61 232
-97 320 -41 104 -116 255 -136 277 -7 7 -13 19 -13 27 0 7 -3 15 -7 17 -5 2
-23 25 -41 51 -31 46 -32 51 -20 85 18 51 17 255 -1 307 -24 68 -59 141 -76
155 -8 7 -15 16 -15 21 0 15 -123 129 -139 129 -5 0 -11 4 -13 8 -5 13 -105
58 -170 77 -31 9 -91 18 -133 21 -41 2 -79 5 -83 5 -4 1 -9 1 -12 0 -3 -1 -26
-4 -52 -6 -56 -5 -146 -30 -204 -56 -41 -18 -43 -18 -110 2 -76 22 -131 35
-184 44 -53 9 -83 14 -108 19 -53 11 -366 28 -375 20z"/>
<path d="M769 2253 c-30 -8 -55 -18 -57 -23 -2 -6 -8 -10 -14 -10 -14 0 -78
-71 -78 -87 0 -7 -4 -13 -9 -13 -4 0 -13 -24 -19 -54 -33 -162 45 -293 203
-340 40 -13 68 -13 145 -3 56 8 144 79 176 143 28 56 26 174 -3 230 -66 125
-211 191 -344 157z"/>
<path d="M75 1706 c-67 -29 -93 -126 -52 -187 63 -94 193 -86 237 14 28 61 0
134 -63 169 -30 16 -90 18 -122 4z"/>
<path d="M896 1133 c-2 -2 -19 -7 -38 -9 -18 -3 -66 -21 -105 -41 -86 -42
-174 -129 -215 -214 -104 -210 -53 -466 120 -606 51 -42 79 -60 102 -69 8 -3
31 -12 50 -21 22 -10 71 -17 130 -19 145 -4 245 29 350 118 51 42 127 149 134
188 1 3 5 11 9 18 5 6 6 12 3 12 -3 0 -1 12 6 28 17 42 18 174 2 235 -33 128
-85 204 -200 297 -27 22 -102 56 -154 71 -44 12 -185 21 -194 12z"/>
</g>
</svg>
