<?xml version="1.0" encoding="UTF-8"?>
<svg width="131px" height="125px" viewBox="0 0 131 125" version="1.1" xmlns="http://www.w3.org/2000/svg" xmlns:xlink="http://www.w3.org/1999/xlink">
    <!-- Generator: Sketch 48.2 (47327) - http://www.bohemiancoding.com/sketch -->
    <title>Group</title>
    <desc>Created with Sketch.</desc>
    <defs></defs>
    <g id="Page-1" stroke="none" stroke-width="1" fill="none" fill-rule="evenodd">
        <g id="logo" fill-rule="nonzero">
            <g id="Group">
                <path d="M120.73,19.92 C121.256,18.454 121.551,16.884 121.551,15.244 C121.551,7.37 115.102,0.987 105.951,0.987 C102.861,0.987 99.978,1.728 97.502,2.996 C92.437,1.31 86.925,0.382 81.05,0.382 C52.319,0.382 29.028,22.25 29.028,49.225 C29.028,58.812 31.982,67.747 37.065,75.292 C35.636,78.336 34.824,81.701 34.824,85.252 C34.824,98.763 46.328,109.716 60.518,109.716 C69.769,109.716 77.217,105.045 81.296,98.061 C109.895,97.935 130.028,76.121 130.028,49.225 C130.028,38.229 126.662,28.083 120.73,19.92" id="Fill-1" fill="#3E515A"></path>
                <path d="M27.445,82.12 C29.594,78.934 28.479,74.915 25.236,72.728 C21.993,70.54 17.849,71.012 15.7,74.198 C13.552,77.383 14.439,81.739 17.682,83.927 C20.925,86.114 25.296,85.305 27.445,82.12" id="Fill-2" fill="#3E515A"></path>
                <path d="M6.311,90.238 C7.356,88.688 6.814,86.734 5.237,85.67 C3.659,84.605 1.644,84.835 0.598,86.385 C-0.447,87.934 -0.015,90.053 1.563,91.117 C3.14,92.181 5.266,91.788 6.311,90.238" id="Fill-3" fill="#3E515A"></path>
                <path d="M22.404,124.156 C29.017,125.085 35.411,120.478 36.361,113.715 C37.312,106.953 32.458,100.595 25.846,99.666 C19.234,98.736 13.103,103.465 12.153,110.228 C11.202,116.991 15.792,123.227 22.404,124.156" id="Fill-4" fill="#3E515A"></path>
                <path d="M63.966,72.034 C66.814,72.034 70.16,71.536 72.438,70.752 L71.37,63.633 C68.878,64.273 66.386,64.558 64.179,64.558 C59.195,64.558 57.7,63.063 57.7,58.791 L57.7,49.179 C57.7,44.908 59.195,43.412 64.179,43.412 C65.888,43.412 69.021,43.697 71.37,44.338 L72.438,37.218 C69.875,36.364 66.386,35.937 63.966,35.937 C53.072,35.937 49.014,39.924 49.014,49.251 L49.014,58.72 C49.014,68.047 53.072,72.034 63.966,72.034 Z M79.686,71.322 L88.656,71.322 L88.656,55.943 L97.77,55.943 C108.805,55.943 113.22,51.458 113.22,43.199 L113.22,36.72 C113.22,28.39 109.161,23.904 98.197,23.904 L79.686,23.904 L79.686,71.322 Z M104.249,37.432 L104.249,42.273 C104.249,46.189 102.754,48.04 97.699,48.04 L88.656,48.04 L88.656,31.807 L97.699,31.807 C102.611,31.807 104.249,33.516 104.249,37.432 Z" id="Fill-6" fill="#FFFFFE"></path>
            </g>
        </g>
    </g>
</svg>