<?xml version="1.0" encoding="UTF-8"?>
<svg width="393px" height="125px" viewBox="0 0 393 125" version="1.1" xmlns="http://www.w3.org/2000/svg" xmlns:xlink="http://www.w3.org/1999/xlink">
    <!-- Generator: Sketch 48.2 (47327) - http://www.bohemiancoding.com/sketch -->
    <title>CP_logo_fullcolor_flat</title>
    <desc>Created with Sketch.</desc>
    <defs></defs>
    <g id="Page-1" stroke="none" stroke-width="1" fill="none" fill-rule="evenodd">
        <g id="CP_logo_fullcolor_flat" transform="translate(0.000000, -667.000000)">
            <path d="M120.73,686.92 C121.256,685.454 121.551,683.884 121.551,682.244 C121.551,674.37 115.102,667.987 105.951,667.987 C102.861,667.987 99.978,668.728 97.502,669.996 C92.437,668.31 86.925,667.382 81.05,667.382 C52.319,667.382 29.028,689.25 29.028,716.225 C29.028,725.812 31.982,734.747 37.065,742.292 C35.636,745.336 34.824,748.701 34.824,752.252 C34.824,765.763 46.328,776.716 60.518,776.716 C69.769,776.716 77.217,772.045 81.296,765.061 C109.895,764.935 130.028,743.121 130.028,716.225 C130.028,705.229 126.662,695.083 120.73,686.92" id="Fill-1" fill="#3E515A"></path>
            <path d="M27.445,749.12 C29.594,745.934 28.479,741.915 25.236,739.728 C21.993,737.54 17.849,738.012 15.7,741.198 C13.552,744.383 14.439,748.739 17.682,750.927 C20.925,753.114 25.296,752.305 27.445,749.12" id="Fill-2" fill="#3E515A"></path>
            <path d="M6.311,757.238 C7.356,755.688 6.814,753.734 5.237,752.67 C3.659,751.605 1.644,751.835 0.598,753.385 C-0.447,754.934 -0.015,757.053 1.563,758.117 C3.14,759.181 5.266,758.788 6.311,757.238" id="Fill-3" fill="#3E515A"></path>
            <path d="M22.404,791.156 C29.017,792.085 35.411,787.478 36.361,780.715 C37.312,773.953 32.458,767.595 25.846,766.666 C19.234,765.736 13.103,770.465 12.153,777.228 C11.202,783.991 15.792,790.227 22.404,791.156" id="Fill-4" fill="#3E515A"></path>
            <path d="M156.033,738.535 C158.881,738.535 162.227,738.037 164.505,737.253 L163.438,730.134 C160.946,730.774 158.454,731.059 156.247,731.059 C151.263,731.059 149.768,729.564 149.768,725.292 L149.768,715.68 C149.768,711.409 151.263,709.913 156.247,709.913 C157.955,709.913 161.088,710.198 163.438,710.839 L164.505,703.719 C161.942,702.865 158.454,702.438 156.033,702.438 C145.14,702.438 141.081,706.425 141.081,715.752 L141.081,725.221 C141.081,734.548 145.14,738.535 156.033,738.535 Z M199.819,724.865 L199.819,716.108 C199.819,708.988 196.615,702.438 184.725,702.438 C172.835,702.438 169.631,708.988 169.631,716.108 L169.631,724.865 C169.631,731.985 172.835,738.535 184.725,738.535 C196.615,738.535 199.819,731.985 199.819,724.865 Z M191.133,715.823 L191.133,725.15 C191.133,729.066 189.353,731.13 184.725,731.13 C180.097,731.13 178.318,729.066 178.318,725.15 L178.318,715.823 C178.318,711.907 180.097,709.842 184.725,709.842 C189.353,709.842 191.133,711.907 191.133,715.823 Z M207.508,737.823 L216.194,737.823 L216.194,703.15 L207.508,703.15 L207.508,737.823 Z M207.508,698.237 L216.194,698.237 L216.194,688.198 L207.508,688.198 L207.508,698.237 Z M254.64,737.823 L254.64,712.69 C254.64,706.496 252.576,702.438 246.809,702.438 C242.75,702.438 237.268,703.933 232.925,706.069 L232.071,703.15 L225.449,703.15 L225.449,737.823 L234.135,737.823 L234.135,713.758 C237.268,712.121 241.042,710.839 243.178,710.839 C245.171,710.839 245.954,711.765 245.954,713.616 L245.954,737.823 L254.64,737.823 Z M263.896,737.823 L272.867,737.823 L272.867,722.444 L281.98,722.444 C293.016,722.444 297.43,717.959 297.43,709.7 L297.43,703.221 C297.43,694.891 293.372,690.405 282.407,690.405 L263.896,690.405 L263.896,737.823 Z M288.459,703.933 L288.459,708.774 C288.459,712.69 286.964,714.541 281.909,714.541 L272.867,714.541 L272.867,698.308 L281.909,698.308 C286.822,698.308 288.459,700.017 288.459,703.933 Z M332.459,724.865 L332.459,716.108 C332.459,708.988 329.255,702.438 317.365,702.438 C305.475,702.438 302.271,708.988 302.271,716.108 L302.271,724.865 C302.271,731.985 305.475,738.535 317.365,738.535 C329.255,738.535 332.459,731.985 332.459,724.865 Z M323.773,715.823 L323.773,725.15 C323.773,729.066 321.993,731.13 317.365,731.13 C312.737,731.13 310.957,729.066 310.957,725.15 L310.957,715.823 C310.957,711.907 312.737,709.842 317.365,709.842 C321.993,709.842 323.773,711.907 323.773,715.823 Z M347.267,725.577 L347.267,723.797 L366.562,723.797 L366.562,716.392 C366.562,708.917 364.07,702.438 352.963,702.438 C341.856,702.438 338.581,708.632 338.581,715.965 L338.581,725.15 C338.581,733.48 342.354,738.535 353.248,738.535 C357.377,738.535 362.076,737.823 365.992,736.328 L364.639,729.778 C360.866,730.917 357.377,731.415 354.031,731.415 C348.762,731.415 347.267,729.778 347.267,725.577 Z M347.267,715.111 C347.267,711.836 348.762,709.557 353.034,709.557 C357.306,709.557 358.303,711.836 358.303,715.111 L358.303,716.82 L347.267,716.82 L347.267,715.111 Z M391.124,730.561 C389.629,730.988 388.063,731.273 386.781,731.273 C384.503,731.273 383.648,730.062 383.648,728.211 L383.648,710.056 L391.979,710.056 L392.548,703.15 L383.648,703.15 L383.648,693.324 L374.962,694.535 L374.962,703.15 L369.765,703.15 L369.765,710.056 L374.962,710.056 L374.962,729.35 C374.962,735.545 378.166,738.535 384.503,738.535 C386.71,738.535 390.27,737.965 392.121,737.182 L391.124,730.561 Z" id="Fill-5" fill="#f4aa00"></path>
            <path d="M63.966,739.034 C66.814,739.034 70.16,738.536 72.438,737.752 L71.37,730.633 C68.878,731.273 66.386,731.558 64.179,731.558 C59.195,731.558 57.7,730.063 57.7,725.791 L57.7,716.179 C57.7,711.908 59.195,710.412 64.179,710.412 C65.888,710.412 69.021,710.697 71.37,711.338 L72.438,704.218 C69.875,703.364 66.386,702.937 63.966,702.937 C53.072,702.937 49.014,706.924 49.014,716.251 L49.014,725.72 C49.014,735.047 53.072,739.034 63.966,739.034 Z M79.686,738.322 L88.656,738.322 L88.656,722.943 L97.77,722.943 C108.805,722.943 113.22,718.458 113.22,710.199 L113.22,703.72 C113.22,695.39 109.161,690.904 98.197,690.904 L79.686,690.904 L79.686,738.322 Z M104.249,704.432 L104.249,709.273 C104.249,713.189 102.754,715.04 97.699,715.04 L88.656,715.04 L88.656,698.807 L97.699,698.807 C102.611,698.807 104.249,700.516 104.249,704.432 Z" id="Fill-6" fill="#FFFFFE"></path>
        </g>
    </g>
</svg>